<svg xmlns="http://www.w3.org/2000/svg" xmlns:xlink="http://www.w3.org/1999/xlink" viewBox="0 0 205.44 177.06"><defs><style>.cls-1,.cls-6{fill:none;}.cls-2{clip-path:url(#clip-path);}.cls-3{fill:#f2f2f2;}.cls-10,.cls-13,.cls-4,.cls-7,.cls-9{fill:#fff;}.cls-5{fill:url(#未命名的渐变_146);}.cls-10,.cls-13,.cls-6,.cls-7,.cls-9{stroke-miterlimit:10;}.cls-6{stroke:url(#未命名的渐变_152);}.cls-7{stroke:url(#未命名的渐变_152-2);}.cls-8{fill:url(#未命名的渐变_37);}.cls-9{stroke:url(#未命名的渐变_34);}.cls-10{stroke:url(#未命名的渐变_152-3);}.cls-11{fill:url(#未命名的渐变_34-2);}.cls-12{fill:url(#未命名的渐变_34-3);}.cls-13{stroke:url(#未命名的渐变_37-2);}.cls-14{fill:url(#未命名的渐变_34-4);}.cls-15{fill:#efefef;}.cls-16{fill:url(#未命名的渐变_152-4);}.cls-17{fill:url(#未命名的渐变_152-5);}.cls-18{fill:url(#未命名的渐变_34-5);}.cls-19{fill:url(#未命名的渐变_34-6);}.cls-20{fill:url(#未命名的渐变_34-7);}</style><clipPath id="clip-path" transform="translate(-2.28 -14.94)"><rect class="cls-1" width="210" height="192"/></clipPath><linearGradient id="未命名的渐变_146" x1="103.5" y1="130.57" x2="154.29" y2="130.57" gradientUnits="userSpaceOnUse"><stop offset="0" stop-color="#f1f1f1"/><stop offset="0.99" stop-color="#fafafa"/></linearGradient><linearGradient id="未命名的渐变_152" x1="147.22" y1="121.2" x2="163.55" y2="121.2" gradientUnits="userSpaceOnUse"><stop offset="0" stop-color="#e2e2e2"/><stop offset="0.99" stop-color="#f1f1f1"/></linearGradient><linearGradient id="未命名的渐变_152-2" x1="138.44" y1="112.74" x2="163.3" y2="112.74" xlink:href="#未命名的渐变_152"/><linearGradient id="未命名的渐变_37" x1="74.83" y1="53.55" x2="174.38" y2="53.55" gradientUnits="userSpaceOnUse"><stop offset="0" stop-color="#bfbfbf"/><stop offset="0.99" stop-color="#f2f2f2"/></linearGradient><linearGradient id="未命名的渐变_34" x1="81.98" y1="92.38" x2="176.39" y2="92.38" gradientUnits="userSpaceOnUse"><stop offset="0" stop-color="#ddd"/><stop offset="0.99" stop-color="#f2f2f2"/></linearGradient><linearGradient id="未命名的渐变_152-3" x1="125.99" y1="126.39" x2="154.08" y2="126.39" xlink:href="#未命名的渐变_152"/><linearGradient id="未命名的渐变_34-2" x1="23.71" y1="103.4" x2="98.42" y2="103.4" xlink:href="#未命名的渐变_34"/><linearGradient id="未命名的渐变_34-3" x1="78.66" y1="62.39" x2="184.01" y2="62.39" xlink:href="#未命名的渐变_34"/><linearGradient id="未命名的渐变_37-2" x1="112.8" y1="133.15" x2="144.96" y2="133.15" xlink:href="#未命名的渐变_37"/><linearGradient id="未命名的渐变_34-4" x1="26.75" y1="118.03" x2="155.06" y2="118.03" xlink:href="#未命名的渐变_34"/><linearGradient id="未命名的渐变_152-4" x1="91.07" y1="72.93" x2="100.26" y2="72.93" xlink:href="#未命名的渐变_152"/><linearGradient id="未命名的渐变_152-5" x1="127.67" y1="74.62" x2="136.85" y2="74.62" xlink:href="#未命名的渐变_152"/><linearGradient id="未命名的渐变_34-5" x1="0" y1="157.01" x2="165.74" y2="157.01" xlink:href="#未命名的渐变_34"/><linearGradient id="未命名的渐变_34-6" x1="68.28" y1="178.97" x2="68.28" y2="179.97" gradientTransform="translate(-111.19 247.75) rotate(-90)" xlink:href="#未命名的渐变_34"/><linearGradient id="未命名的渐变_34-7" x1="165.54" y1="175.96" x2="165.54" y2="176.96" gradientTransform="translate(-10.92 342) rotate(-90)" xlink:href="#未命名的渐变_34"/></defs><title>努力上传</title><g id="图层_2" data-name="图层 2"><g id="图层_1-2" data-name="图层 1"><g class="cls-2"><polygon class="cls-3" points="59.37 29.66 57.6 36.34 50.99 38.13 57.6 39.93 59.37 46.61 61.15 39.93 67.75 38.13 61.15 36.34 59.37 29.66"/><polygon class="cls-3" points="37.59 0 34.75 10.68 24.19 13.56 34.75 16.43 37.59 27.12 40.43 16.43 50.99 13.56 40.43 10.68 37.59 0"/><polygon class="cls-4" points="92.72 108.06 151.72 121.06 102.72 141.06 92.72 108.06"/><path class="cls-4" d="M152.5,99.5s11.76,3,10.38,15-.38,22-4.38,24a81.59,81.59,0,0,1-7.49,3.28L90.5,134.5v-38Z" transform="translate(-2.28 -14.94)"/><path class="cls-5" d="M103.5,125.5s13.19,4.17,50.79,10.14" transform="translate(-2.28 -14.94)"/><path class="cls-6" d="M154,99.23s9.63,4.41,9,11.46c0,0,0,22.66-4.29,28.17l-11.33,4.28" transform="translate(-2.28 -14.94)"/><path class="cls-7" d="M162.88,109l-9.35,14c-.62-9.49-14.4-9.49-14.4-9.49l1.77-5.33s9.3-2.54,12.68-6.76" transform="translate(-2.28 -14.94)"/><path class="cls-8" d="M82.18,48.52s8-22.35,17.15-21.43C96.26,33.82,95,36.27,95,36.27s26.33-22,53.28-9.18c-11.94,2.45-5.51,2.14-5.51,2.14s32.76-.61,31.54,27.26l-2.76,11s1.84,8,.61,9.49-9.79,2.15-9.79,2.15L161.49,84l-3.37-10.41-.61-1.83S117.7,85.88,83.4,70.88c0,0-6.12,5.82-8.57,5.2,0,0,4.9-3.67,4-7.35C78.81,68.73,78.2,50.36,82.18,48.52Z" transform="translate(-2.28 -14.94)"/><path class="cls-9" d="M82.48,69.35s0,31.54,12.86,39.5c0,0,28.48,20.51,64.31-11l1.53-1.53s21.44-5.81,12.56-18.68c0,0-10.11-7-15.93,2.45l7.05-6.73-7.05-4Z" transform="translate(-2.28 -14.94)"/><path class="cls-10" d="M139.5,112.49l-12.92,14.42c.92,2.15,5.82,1.23,5.82,1.23,12.86-.61,9.49,9.8,9.49,9.8l11.69-16.3S154.16,115.18,139.5,112.49Z" transform="translate(-2.28 -14.94)"/><polygon class="cls-4" points="24.72 62.06 98.72 146.06 84.72 73.06 30.72 61.06 24.72 62.06"/><polyline class="cls-11" points="23.71 60.99 42.69 122.84 98.42 145.81"/><path class="cls-12" d="M81.11,49.9s39.8,15.31,85.43,3.68l4.59,2.14,9.8-8.88s3.37,11,3.06,11-9.79-1.53-9.79-1.53l8.88,5.82s-2.15,7.35-4.29,8.88l-7.66-6.12-1.83,2.14s-38,23.88-90.64.92C78.66,68,79.27,50.51,81.11,49.9Z" transform="translate(-2.28 -14.94)"/><path class="cls-13" d="M127.5,126.91h-4.6a5.61,5.61,0,0,0-3.9-1.7c-3.3,0-5.2,1.44-5.59,2.32-.47,1.07.31,2.14,6.43,1.83l1.23,1.84L122.6,130a84.7,84.7,0,0,0-5.82,6.73c-.92,1.53,1.84,3.07,6.43-1.83l1.53-2.76,3.68-1.53-3.07,1.84s-2.75,6.12-3.36,6.43,1.53,1.53,7.34-3.37l2.15-2.76s-2.15,4.29-3.68,5.21c0,0-.3,4,7.66-1.23,0,0-3,3.52-1.32,4.37,0,0,2.53,0,6.76-2.54l3.38-6.76-10.66-5.17Z" transform="translate(-2.28 -14.94)"/><path class="cls-14" d="M96.37,115.53l-.11.67,1.53,5.2s7,2.45,8.27,8l-4,4.9-1.22.92L89.07,87l16.38,66.91,49-18.37.62,6.74-54.2,18.67L84.78,88.18l-58-11.48,5.51-1.54L89.07,87" transform="translate(-2.28 -14.94)"/><path class="cls-15" d="M139.12,76.85a2.3,2.3,0,0,1,0,1.7,1.55,1.55,0,0,1-.55.72,11.2,11.2,0,0,1-1.28.84,20,20,0,0,1-2.59,1.27,21.19,21.19,0,0,1-2.73.88,8.08,8.08,0,0,1-3.09.24V81c.59-.29,1.41-.74,2.13-1.18s1.5-.89,2.24-1.35,1.48-.91,2.18-1.37c.34-.23.69-.45,1-.68a.62.62,0,0,1,.49-.15c.2,0,.37.12.73.58Z" transform="translate(-2.28 -14.94)"/><path class="cls-15" d="M92.43,74.31c.36-.45.53-.54.73-.58a.57.57,0,0,1,.48.16c.29.22.64.44,1,.68.7.45,1.44.91,2.18,1.36s1.49.91,2.23,1.35,1.54.89,2.14,1.18V80a7.88,7.88,0,0,1-3.09-.24,20.41,20.41,0,0,1-5.32-2.14,14.73,14.73,0,0,1-1.28-.84,1.51,1.51,0,0,1-.55-.73,2.29,2.29,0,0,1,0-1.7Z" transform="translate(-2.28 -14.94)"/><ellipse class="cls-16" cx="95.67" cy="72.93" rx="4.59" ry="6.74"/><ellipse class="cls-17" cx="132.26" cy="74.62" rx="4.59" ry="6.74"/><rect class="cls-18" y="155" width="165.74" height="4.01" rx="2"/><rect class="cls-3" x="119.84" y="104.12" width="10.03" height="165.74" rx="5" transform="translate(309.56 47.2) rotate(90)"/><rect class="cls-19" x="67.78" y="139.27" width="1" height="80.39" rx="0.5" transform="translate(245.47 96.25) rotate(90)"/><rect class="cls-20" x="165.04" y="136.26" width="1" height="80.39" rx="0.5" transform="translate(339.72 -4.02) rotate(90)"/></g></g></g></svg>